<?xml version="1.0" encoding="UTF-8"?>
<svg width="35px" height="35px" viewBox="0 0 35 35" version="1.1" xmlns="http://www.w3.org/2000/svg" xmlns:xlink="http://www.w3.org/1999/xlink">
    <!-- Generator: sketchtool 63.1 (101010) - https://sketch.com -->
    <title>0D9AE6A9-1940-4AD5-837E-44C4A213A556</title>
    <desc>Created with sketchtool.</desc>
    <g id="Page-1" stroke="none" stroke-width="1" fill="none" fill-rule="evenodd">
        <g id="Accueil-V2" transform="translate(-1018.000000, -748.000000)" fill="#A7A18C" fill-rule="nonzero">
            <g id="Group" transform="translate(991.000000, 721.000000)">
                <g id="info" transform="translate(27.000000, 27.000000)">
                    <path d="M1.3675293,35 C1.01910156,35 0.676005859,34.8668359 0.415625,34.6143848 C0.0160644531,34.2270605 -0.108828125,33.6362305 0.0997363281,33.1203906 L3.20400391,25.441377 C1.10482422,22.7126074 0,19.5114746 0,16.1328125 C0,11.8005371 1.83579102,7.73438477 5.16933594,4.68336914 C8.46911133,1.66325195 12.8482813,0 17.5,0 C22.1517188,0 26.5308887,1.66325195 29.8306641,4.68336914 C33.164209,7.73438477 35,11.8005371 35,16.1328125 C35,19.2396094 34.0402344,22.2562402 32.2244727,24.8564941 C31.7920996,25.475625 30.9398633,25.6269727 30.3207324,25.194668 C29.7016016,24.7623633 29.5502539,23.9100586 29.9825586,23.2909277 C31.4762109,21.1520996 32.265625,18.6768066 32.265625,16.1328125 C32.265625,8.74487305 25.6418066,2.734375 17.5,2.734375 C9.35819336,2.734375 2.734375,8.74487305 2.734375,16.1328125 C2.734375,19.125791 3.79920898,21.9570313 5.81369141,24.3204199 C6.14414063,24.7080859 6.23170898,25.2474414 6.04071289,25.7197363 L3.89655273,31.0236719 L10.1408398,28.2711133 C10.4869434,28.1186035 10.8808984,28.1161426 11.2288477,28.2646191 C13.1989648,29.1050977 15.3088086,29.53125 17.5,29.53125 C20.0219141,29.53125 22.5106738,28.944248 24.6972852,27.83375 C25.370625,27.4919531 26.1934668,27.7604688 26.5354004,28.4336035 C26.8772656,29.106875 26.60875,29.9297852 25.9355469,30.2717188 C23.3671484,31.5761523 20.4501855,32.265625 17.5,32.265625 C15.1429688,32.265625 12.8628418,31.8424121 10.7135547,31.0069238 L1.91871094,34.8838574 C1.74138672,34.9619922 1.55367188,35 1.3675293,35 Z M18.8671875,22.2167969 L18.8671875,14.8339844 C18.8671875,14.0788867 18.2550977,13.4667969 17.5,13.4667969 C16.7449023,13.4667969 16.1328125,14.0788867 16.1328125,14.8339844 L16.1328125,22.2167969 C16.1328125,22.9718945 16.7449023,23.5839844 17.5,23.5839844 C18.2550977,23.5839844 18.8671875,22.9718945 18.8671875,22.2167969 Z M17.5,8.75 C16.7449023,8.75 16.1328125,9.36208984 16.1328125,10.1171875 L16.1328125,10.1171875 C16.1328125,10.8722852 16.7449023,11.484375 17.5,11.484375 C18.2550977,11.484375 18.8671875,10.8722852 18.8671875,10.1171875 L18.8671875,10.1171875 C18.8671875,9.36208984 18.2550977,8.75 17.5,8.75 Z" id="Shape"></path>
                </g>
            </g>
        </g>
    </g>
</svg>